<svg id="bengaluru" xmlns="http://www.w3.org/2000/svg" xmlns:xlink="http://www.w3.org/1999/xlink" width="1.17in" height="1.25in" viewBox="0 0 84.25 89.99"><defs><style>.cls-1{fill:none;}.cls-2{fill:#fdf9f0;}.cls-3{fill:#fffffe;}.cls-3,.cls-7{fill-rule:evenodd;}.cls-4{fill:#f68c59;}.cls-5{clip-path:url(#clip-path);}.cls-6,.cls-7{fill:#a69182;}.cls-8{clip-path:url(#clip-path-3);}</style><clipPath id="clip-path" transform="translate(-5.08 -4.12)"><circle class="cls-1" cx="47.21" cy="46" r="42.37"/></clipPath><clipPath id="clip-path-3" transform="translate(-5.08 -4.12)"><circle class="cls-1" cx="47.21" cy="46.24" r="42.37"/></clipPath></defs><circle id="Ellipse_143" data-name="Ellipse 143" class="cls-2" cx="42.12" cy="42.12" r="42.12"/><g id="Group_458" data-name="Group 458"><path id="Path_789" data-name="Path 789" class="cls-3" d="M77.62,53.7V51.94" transform="translate(-5.08 -4.12)"/><path id="Path_790" data-name="Path 790" class="cls-4" d="M42.5,70.44h1v9.82h-1Zm5.92,0h1v9.82h-1Zm5.79,0h1v9.82h-1Z" transform="translate(-5.08 -4.12)"/></g><g class="cls-5"><g id="Group_459" data-name="Group 459"><path id="Path_791" data-name="Path 791" class="cls-6" d="M76.49,91.46h3.9V57.1h-3.9Zm-61.68,0h3.9V57.1h-3.9Z" transform="translate(-5.08 -4.12)"/></g></g><g class="cls-5"><g id="Group_460" data-name="Group 460"><path id="Path_792" data-name="Path 792" class="cls-7" d="M46.66,36.08V32.93" transform="translate(-5.08 -4.12)"/></g></g><g class="cls-8"><g id="Group_461" data-name="Group 461"><path id="Path_793" data-name="Path 793" class="cls-3" d="M36.71,53.7V51.94M59.12,53.7V51.94" transform="translate(-5.08 -4.12)"/><path id="Path_794" data-name="Path 794" class="cls-6" d="M39.61,54.33c0-2.14,1.76-7.43,4-7.43H53.2c2.27,0,4,5.41,4,7.43v.5H39.61v-.5" transform="translate(-5.08 -4.12)"/><path id="Path_795" data-name="Path 795" class="cls-6" d="M38.6,57.22h0a1.53,1.53,0,0,1,1.51-1.51H56.73a1.55,1.55,0,0,1,1.51,1.51h0a1.53,1.53,0,0,0,1.51,1.51h1a1.56,1.56,0,0,1,1.52,1.52V92.6a1.56,1.56,0,0,1-1.52,1.51H36.33a1.55,1.55,0,0,1-1.51-1.51V60.12a1.53,1.53,0,0,1,1.51-1.51h1C38,58.73,38.6,58.1,38.6,57.22Zm0,11.71V81.64a1.53,1.53,0,0,0,1.51,1.51H57.73a1.53,1.53,0,0,0,1.51-1.51V68.93a1.53,1.53,0,0,0-1.51-1.51H40.11A1.62,1.62,0,0,0,38.6,68.93Zm3.9-8.31v2.89h1V60.62Zm5.92,0v2.89h1V60.62Zm5.79,0v2.89h1V60.62Z" transform="translate(-5.08 -4.12)"/><path id="Path_796" data-name="Path 796" class="cls-4" d="M59.62,55V53.82c0-.63.25-1,.5-1s.51.37.51,1V55c3.9,1.51,3.4,3.14,3.4,3.14a1.58,1.58,0,0,1-1.61,1.52H57.61a1.6,1.6,0,0,1-1.39-1.51s-.38-1,1.39-2.14A9.92,9.92,0,0,1,59.62,55ZM36.08,55V53.82c0-.63.25-1,.51-1s.5.37.5,1V55a9.92,9.92,0,0,1,2,1c1.77,1.14,1.39,2.27,1.39,2.27a1.61,1.61,0,0,1-1.39,1.51H34.32a1.65,1.65,0,0,1-1.64-1.51c0-.13-.5-1.76,3.4-3.27ZM78,55V53.82c0-.63.25-1,.5-1s.51.37.51,1V55c3.9,1.51,3.39,3.14,3.39,3.14a1.56,1.56,0,0,1-1.6,1.52H76.11a1.63,1.63,0,0,1-1.64-1.51c.13.13-.5-1.63,3.53-3.14ZM16.32,55V53.82c0-.63.25-1,.5-1s.51.37.51,1V55c3.9,1.51,3.4,3.14,3.4,3.14a1.58,1.58,0,0,1-1.61,1.52H14.43a1.63,1.63,0,0,1-1.64-1.51c.13.13-.5-1.63,3.53-3.14ZM63,94V62.64H76.74V94Zm6.8-24a2.64,2.64,0,0,0-2.64,2.64h0v4.28a2.65,2.65,0,0,0,2.63,2.66l.26,0a2.71,2.71,0,0,0,2.39-2.64,5.38,5.38,0,0,0,0-4.41A4.71,4.71,0,0,0,69.82,69.94ZM20.48,94V62.64H34.2V94Zm7.17-22.41A2.65,2.65,0,0,0,25,74.22h0V78.5a3.2,3.2,0,0,0,2.89,2.64h0a2.74,2.74,0,0,0,2.89-2.59,1.09,1.09,0,0,0,0-.18V76A5.81,5.81,0,0,0,30,72.45a2.53,2.53,0,0,0-2.39-.88Z" transform="translate(-5.08 -4.12)"/><path id="Path_797" data-name="Path 797" class="cls-4" d="M34.57,52.44" transform="translate(-5.08 -4.12)"/><path id="Path_798" data-name="Path 798" class="cls-4" d="M79.89,53.07" transform="translate(-5.08 -4.12)"/></g></g><g class="cls-5"><g id="Group_462" data-name="Group 462"><path id="Path_799" data-name="Path 799" class="cls-6" d="M48.47,37.33c7.3,2.77,6.29,5.92,6.29,5.92A2.89,2.89,0,0,1,52,46H43.93a2.79,2.79,0,0,1-2.76-2.77s-1-3.15,6.29-5.92V35.19a.69.69,0,0,1,.5-.25,1,1,0,0,1,.51.25v2.14Z" transform="translate(-5.08 -4.12)"/></g></g><path id="Path_800" data-name="Path 800" class="cls-2" d="M68.94,67.29a2.67,2.67,0,0,0-2.65,2.65h0v4.28a2.64,2.64,0,0,0,2.63,2.65h.27a2.72,2.72,0,0,0,2.39-2.64,5.38,5.38,0,0,0,0-4.41A7.58,7.58,0,0,0,68.94,67.29Z" transform="translate(-5.08 -4.12)"/><path id="Path_801" data-name="Path 801" class="cls-2" d="M68.94,67.29a2.67,2.67,0,0,0-2.65,2.65h0v4.28a2.64,2.64,0,0,0,2.63,2.65h.27a2.72,2.72,0,0,0,2.39-2.64,5.38,5.38,0,0,0,0-4.41A7.58,7.58,0,0,0,68.94,67.29Z" transform="translate(-5.08 -4.12)"/></svg>