<svg xmlns="http://www.w3.org/2000/svg" width="13" height="12.56" viewBox="0 0 13 12.56">
  <g id="handcrafted" transform="translate(-298 -1011)">
    <ellipse id="Ellipse_154" data-name="Ellipse 154" cx="6.5" cy="6.28" rx="6.5" ry="6.28" transform="translate(298 1011)" fill="#a69182"/>
    <path id="hand" d="M2,9.034H3.944A1.486,1.486,0,0,0,5.253,8.21l1.68-3.226-.095-.078-.005,0a.722.722,0,0,0-.542-.194.738.738,0,0,0-.52.275l-.485.59a.139.139,0,0,1-.246-.088l0-4.058a.46.46,0,1,0-.918-.019c0,.41,0,.856,0,1.281,0,.96,0,1.789,0,1.87A.137.137,0,0,1,3.98,4.7h0a.138.138,0,0,1-.139-.137c0-.081,0-.909,0-1.87,0-.414,0-.85,0-1.252,0,0,0-.006,0-.01s0-.015,0-.023V.5A.481.481,0,0,0,3.382,0H3.368A.482.482,0,0,0,2.9.5V4.559a.139.139,0,0,1-.277,0V1.023a.479.479,0,0,0-.455-.5.479.479,0,0,0-.456.5V4.559a.139.139,0,0,1-.277,0V2.475a.479.479,0,0,0-.464-.494H.961a.478.478,0,0,0-.459.5c0,1.139,0,3.147,0,4.944A1.562,1.562,0,0,0,2,9.034Zm0,0" transform="translate(301.618 1012.483)" fill="#fff"/>
  </g>
</svg>
