<!-- Generated by IcoMoon.io -->
<svg version="1.1" xmlns="http://www.w3.org/2000/svg" width="32" height="32" viewBox="0 0 32 32">
<title>icon_account</title>
<path d="M15.398 14.187c-1.087-0.001-2.129-0.432-2.899-1.2s-1.203-1.809-1.206-2.896c0-0.808 0.24-1.599 0.689-2.271s1.088-1.198 1.836-1.508 1.57-0.392 2.364-0.234c0.794 0.157 1.523 0.546 2.096 1.118s0.963 1.3 1.122 2.094c0.159 0.793 0.079 1.616-0.229 2.364s-0.832 1.388-1.504 1.839c-0.671 0.451-1.461 0.692-2.269 0.694zM15.4 16.187c1.205-0.003 2.381-0.362 3.382-1.033s1.779-1.624 2.238-2.737c0.459-1.114 0.578-2.338 0.341-3.52s-0.818-2.266-1.671-3.116-1.938-1.43-3.12-1.664c-1.182-0.234-2.406-0.113-3.519 0.349s-2.063 1.243-2.732 2.244c-0.669 1.002-1.026 2.179-1.026 3.384 0.004 1.617 0.648 3.167 1.793 4.309s2.696 1.784 4.313 1.784z"></path>
<path d="M15.787 19.094l-0.033-0.001c-3.855-0.064-7.604 1.258-10.566 3.725-0.162 0.141-0.292 0.315-0.382 0.51-0.091 0.198-0.139 0.414-0.139 0.633 0 0.391 0.155 0.766 0.431 1.043s0.649 0.433 1.040 0.435h19.262c0.193 0 0.384-0.038 0.563-0.112s0.34-0.183 0.477-0.319 0.244-0.299 0.318-0.478c0.073-0.179 0.111-0.37 0.11-0.563v-0.013l0-0.013c0.002-0.219-0.043-0.435-0.133-0.635-0.087-0.193-0.213-0.367-0.37-0.508-2.959-2.455-6.699-3.769-10.544-3.705l-0.033 0.001zM27.667 21.28c0.381 0.334 0.686 0.746 0.893 1.209s0.312 0.964 0.307 1.471c0.002 0.456-0.087 0.909-0.26 1.331s-0.429 0.806-0.751 1.129c-0.322 0.323-0.705 0.58-1.126 0.755s-0.873 0.265-1.33 0.265h-19.267c-0.921-0.004-1.802-0.372-2.452-1.024s-1.015-1.535-1.015-2.456c0.001-0.507 0.11-1.007 0.322-1.467s0.52-0.869 0.905-1.199c3.332-2.781 7.553-4.272 11.893-4.2 4.334-0.072 8.549 1.413 11.88 4.187z"></path>
</svg>
