<!-- Generated by IcoMoon.io -->
<svg version="1.1" xmlns="http://www.w3.org/2000/svg" width="32" height="32" viewBox="0 0 32 32">
<title>icon_search</title>
<path d="M24.857 25.16l0.24-0.24-4.92-5.093c1.311-1.394 2.117-3.277 2.117-5.347 0-4.315-3.498-7.813-7.813-7.813s-7.813 3.498-7.813 7.813c0 4.315 3.498 7.813 7.813 7.813 1.766 0 3.395-0.586 4.703-1.574l-0.020 0.014 4.947 5.147 0.24-0.227 0.24-0.24 0.267-0.24v-0.013zM8.324 14.653c0-3.446 2.794-6.24 6.24-6.24s6.24 2.794 6.24 6.24c0 3.446-2.794 6.24-6.24 6.24v0c-3.443-0.008-6.232-2.797-6.24-6.239v-0.001z"></path>
</svg>
