<svg id="jaipur" xmlns="http://www.w3.org/2000/svg" xmlns:xlink="http://www.w3.org/1999/xlink" width="84.055" height="84.067" viewBox="0 0 84.055 84.067">
  <defs>
    <clipPath id="clip-path">
      <circle id="Ellipse_122" data-name="Ellipse 122" cx="41.795" cy="41.795" r="41.795" fill="none"/>
    </clipPath>
  </defs>
  <circle id="Ellipse_121" data-name="Ellipse 121" cx="41.795" cy="41.795" r="41.795" transform="translate(0.466 0)" fill="#fdf9f0"/>
  <g id="Group_438" data-name="Group 438" transform="translate(0.466 0)" clip-path="url(#clip-path)">
    <path id="Path_767" data-name="Path 767" d="M243.135,47.3c2.747,1.314,4.179,4.06,4.179,8.12v54.811H238V55.54c0-4.179,1.314-6.926,4.179-8.24h0m.478,37.854a1.863,1.863,0,0,0-1.911,1.791h0v5.612a1.9,1.9,0,0,0,1.672,1.552,1.935,1.935,0,0,0,2.03-1.552V86.945A1.839,1.839,0,0,0,242.657,85.154Zm0-23.883a1.863,1.863,0,0,0-1.911,1.791h0v5.612a1.9,1.9,0,0,0,1.672,1.552,1.935,1.935,0,0,0,2.03-1.552V63.063a1.839,1.839,0,0,0-1.791-1.791Z" transform="translate(-200.863 -25.806)" fill="#f68c59"/>
  </g>
  <g id="Group_439" data-name="Group 439" transform="translate(0.466 0)" clip-path="url(#clip-path)">
    <path id="Path_768" data-name="Path 768" d="M256.435,57.2c2.747,1.314,4.18,4.06,4.18,8.12v54.811H251.3V65.32c0-4.06,1.314-6.807,4.179-8.12h0m.478,37.854a1.863,1.863,0,0,0-1.911,1.791h0v5.612a1.9,1.9,0,0,0,1.672,1.552,1.934,1.934,0,0,0,2.03-1.552V96.845a1.839,1.839,0,0,0-1.791-1.791Zm0-23.883a1.863,1.863,0,0,0-1.911,1.791h0v5.612a1.9,1.9,0,0,0,1.672,1.552,1.934,1.934,0,0,0,2.03-1.552V72.963a1.839,1.839,0,0,0-1.791-1.791Z" transform="translate(-198.28 -23.884)" fill="#f68c59"/>
  </g>
  <g id="Group_440" data-name="Group 440" transform="translate(0.466 0)" clip-path="url(#clip-path)">
    <path id="Path_769" data-name="Path 769" d="M229.835,57.419a7.786,7.786,0,0,1,3.1,2.985,8.024,8.024,0,0,1,1.075,5.135v42.75H224.7V65.659c0-4.06,1.433-6.807,4.179-8.12.119,0,.358-.239.716-.239C229.715,57.3,229.715,57.419,229.835,57.419Zm-.478,11.941a1.887,1.887,0,0,0-1.911,1.911h0v5.612h3.7V71.271a1.72,1.72,0,0,0-1.791-1.911Zm0,13.852A1.863,1.863,0,0,0,227.447,85h0v5.612h3.7V85C231.268,84.049,230.432,83.332,229.357,83.213Zm0,13.971a1.72,1.72,0,0,0-1.791,1.911v5.612h3.7V99.095a1.887,1.887,0,0,0-1.911-1.911Z" transform="translate(-203.444 -23.864)" fill="#f68c59"/>
  </g>
  <g id="Group_441" data-name="Group 441" transform="translate(0.466 0)" clip-path="url(#clip-path)">
    <path id="Path_770" data-name="Path 770" d="M216.635,68.3c2.746,1.314,4.179,4.06,4.179,8.12v29.734H211.5V76.54c0-4.06,1.433-6.807,4.179-8.12.239,0,.358-.119.6-.119m-.119,12.777a1.863,1.863,0,0,0-1.911,1.791h0v5.612h3.7V82.868a1.7,1.7,0,0,0-1.791-1.791Z" transform="translate(-206.007 -21.729)" fill="#f68c59" fill-rule="evenodd"/>
  </g>
  <g id="Group_442" data-name="Group 442" transform="translate(0.466 0)" clip-path="url(#clip-path)">
    <path id="Path_771" data-name="Path 771" d="M269.415,68.3h.119c2.746,1.314,4.179,4.06,4.179,8.12v29.734H264.4V76.54c0-4.06,1.433-6.807,4.179-8.12m.478,12.658a1.755,1.755,0,0,0-1.791,1.791h0v5.612h3.7V82.868a1.863,1.863,0,0,0-1.911-1.791Z" transform="translate(-195.737 -21.729)" fill="#f68c59" fill-rule="evenodd"/>
  </g>
  <g id="Group_443" data-name="Group 443" transform="translate(0 0.478)" clip-path="url(#clip-path)">
    <path id="Path_772" data-name="Path 772" d="M262.069,72.8a2.293,2.293,0,0,1,2.388,2.269V105.4H259.8V75.189a2.293,2.293,0,0,1,2.269-2.388Z" transform="translate(-196.165 -21.333)" fill="#a69182"/>
    <path id="Path_773" data-name="Path 773" d="M235.688,54.2a2.269,2.269,0,0,1,2.269,2.269v52.542H233.3V56.47a2.293,2.293,0,0,1,2.388-2.269Zm15.762,0a2.388,2.388,0,0,1,2.388,2.269v52.542h-4.657V56.47a2.126,2.126,0,0,1,2.269-2.269Z" transform="translate(-201.309 -24.945)" fill="#a69182" fill-rule="evenodd"/>
    <path id="Path_774" data-name="Path 774" d="M222.388,72.8a2.269,2.269,0,0,1,2.269,2.269V105.28H220V75.188a2.472,2.472,0,0,1,2.388-2.388Z" transform="translate(-203.891 -21.333)" fill="#a69182"/>
  </g>
</svg>
