<svg xmlns="http://www.w3.org/2000/svg" width="10.693" height="12.557" viewBox="0 0 10.693 12.557">
  <g id="safety" transform="translate(-0.43 0)">
    <path id="Path_804" data-name="Path 804" d="M10.558,8.385a6.335,6.335,0,0,1-1.517,2.364,7.942,7.942,0,0,1-2.965,1.757.907.907,0,0,1-.288.051H5.777a.92.92,0,0,1-.177-.017.958.958,0,0,1-.122-.033A7.941,7.941,0,0,1,2.51,10.75,6.323,6.323,0,0,1,.993,8.387,13.611,13.611,0,0,1,.443,3.42V3.4c.006-.122.009-.249.011-.39A1.331,1.331,0,0,1,1.708,1.7,5.164,5.164,0,0,0,5.222.222L5.231.214a.8.8,0,0,1,1.092,0l.008.008A5.165,5.165,0,0,0,9.846,1.7a1.331,1.331,0,0,1,1.253,1.3c0,.142.006.269.011.39v.01A13.634,13.634,0,0,1,10.558,8.385Zm0,0" transform="translate(0 0)" fill="#a69182"/>
    <path id="Path_805" data-name="Path 805" d="M193.084,8.388a6.335,6.335,0,0,1-1.517,2.364,7.942,7.942,0,0,1-2.965,1.757.934.934,0,0,1-.122.033.925.925,0,0,1-.166.017V0a.806.806,0,0,1,.535.214l.008.008a5.165,5.165,0,0,0,3.515,1.482,1.331,1.331,0,0,1,1.253,1.3c0,.142.006.269.011.39v.01A13.634,13.634,0,0,1,193.084,8.388Zm0,0" transform="translate(-182.525 -0.003)" fill="#a69182"/>
    <path id="Path_808" data-name="Path 808" d="M137.823,183.414l-2.453,2.454-.53.53a.642.642,0,0,1-.907,0l-1.14-1.14a.641.641,0,0,1,.907-.907l.687.687,2.53-2.53a.641.641,0,0,1,.907.907Zm0,0" transform="translate(-129.556 -178.028)" fill="#fff"/>
  </g>
</svg>
